<svg
  width="257"
  height="227"
  viewBox="0 0 257 227"
  fill="none"
  xmlns="http://www.w3.org/2000/svg"
>
  <g id="ear">
    <path
      d="M83.0212 52.5C78.8319 58.8354 69.0212 66 69.0212 66H60.5212C71.8177 57.3624 67.9507 15.9982 75.0212 15C98.4266 11.6957 90.8111 40.7198 83.0212 52.5Z"
      fill="#F17C7C"
      stroke="black"
      stroke-width="6"
    />
  </g>
  <g id="body">
    <path
      d="M58.5212 117.5C58.5212 117.5 49.8431 114.197 44.0212 114C32.7441 113.619 14.014 124.846 6.52123 110C-3.18483 90.7686 27.5777 73.7252 41.0212 69C48.2901 66.4451 60.5212 66 60.5212 66H69.0212C69.0212 66 80.9576 71.6443 86.0212 78C96.1663 90.7338 97.4317 116.775 97.0212 132.5C96.7113 144.373 92.0212 162.5 92.0212 162.5C92.0212 162.5 99.5328 160.342 103.521 157.5C125.106 142.121 108.973 108.275 122.521 90C137.114 70.3163 188.907 63.7489 210.521 73C239.227 85.2862 251.809 122.221 248.521 151.5C245.621 177.326 215.021 209 215.021 209L29.0212 212.5C29.0212 212.5 26.1836 194.166 29.0212 183C32.6104 168.877 43.1462 164.835 49.0212 151.5C54.5797 138.884 58.5212 117.5 58.5212 117.5Z"
      fill="#D1A2A2"
      stroke="black"
      stroke-width="6"
    />
  </g>
</svg>

